<?xml version="1.0" encoding="UTF-8"?>
<svg id="Layer_1" xmlns="http://www.w3.org/2000/svg" version="1.1" viewBox="0 0 340.16 340.16">
  <!-- Generator: Adobe Illustrator 29.5.1, SVG Export Plug-In . SVG Version: 2.1.0 Build 141)  -->
  <path d="M2.08,169.58c0,92,76,168,168,168s168-76,168-168S262.08,2.58,170.08,2.58,2.08,77.58,2.08,169.58ZM232.08,247.58c-39-24-89-30-147-17-14,2-16-18-4-20,64-15,118-8,162,19,11,7,0,24-11,18ZM249.08,202.58c-45-28-114-36-167-20-17,5-23-21-7-25,61-18,136-9,188,23,14,9,0,31-14,22ZM74.08,131.58c-17,6-28-23-9-30,59-18,159-15,221,22,17,9,1,37-17,27-54-32-144-35-195-19Z"/>
</svg>