<?xml version="1.0"?>
<svg xmlns="http://www.w3.org/2000/svg" viewBox="0 0 50 50">
    <path style="text-indent:0;text-align:start;line-height:normal;text-transform:none;block-progression:tb;-inkscape-font-specification:Bitstream Vera Sans" d="M 1.8125 14.4375 L 0.1875 15.5625 L 7.1875 25.5625 L 7.46875 26 L 8 26 L 36.09375 26 C 36.582684 29.382729 39.485981 32 43 32 C 46.854148 32 50 28.854148 50 25 C 50 21.145852 46.854148 18 43 18 C 39.485981 18 36.582684 20.617271 36.09375 24 L 20.5 24 L 17.3125 19.4375 L 15.6875 20.5625 L 18.09375 24 L 14.5 24 L 7.8125 14.4375 L 6.1875 15.5625 L 12.09375 24 L 8.5 24 L 1.8125 14.4375 z M 43 20 C 45.773268 20 48 22.226732 48 25 C 48 27.773268 45.773268 30 43 30 C 40.226732 30 38 27.773268 38 25 C 38 22.226732 40.226732 20 43 20 z" overflow="visible" font-family="Bitstream Vera Sans"/>
</svg>
