<?xml version="1.0"?>
<svg xmlns="http://www.w3.org/2000/svg" viewBox="0 0 50 50">
    <path style="text-indent:0;text-align:start;line-height:normal;text-transform:none;block-progression:tb;-inkscape-font-specification:Bitstream Vera Sans" d="M 25 12 C 17.832143 12 12 17.832143 12 25 C 12 32.167857 17.832143 38 25 38 C 32.167857 38 38 32.167857 38 25 C 38 17.832143 32.167857 12 25 12 z M 25 14 C 31.086977 14 36 18.913023 36 25 C 36 31.086977 31.086977 36 25 36 C 18.913023 36 14 31.086977 14 25 C 14 18.913023 18.913023 14 25 14 z M 25 18 C 21.145852 18 18 21.145852 18 25 C 18 28.854148 21.145852 32 25 32 C 28.854148 32 32 28.854148 32 25 C 32 21.145852 28.854148 18 25 18 z M 25 20 C 27.773268 20 30 22.226732 30 25 C 30 27.773268 27.773268 30 25 30 C 22.226732 30 20 27.773268 20 25 C 20 22.226732 22.226732 20 25 20 z" overflow="visible" font-family="Bitstream Vera Sans"/>
</svg>
